<?xml version="1.0" encoding="UTF-8"?>
<svg id="Layer_9" data-name="Layer 9" xmlns="http://www.w3.org/2000/svg" xmlns:xlink="http://www.w3.org/1999/xlink" viewBox="0 0 500 500">
  <defs>
    <style>
      .cls-1 {
        fill: #fff;
      }

      .cls-2 {
        fill: #dff2f1;
      }

      .cls-3 {
        clip-path: url(#clippath);
      }
    </style>
    <clipPath id="clippath">
      <path class="cls-1" d="m142.32,352.62c15.06,11.29,29.29,8.66,39.83,0,58.38,57.53,138.04,47.66,185.87-7.15,143.31,39.98,152.17-170.3,14.3-132.77-29.11-90.89-163.4-105.7-202.72-28.6-36.26-34.72-90.38.51-84.77,43.4-82.72,22.49-62.3,145.13,47.49,125.11Z"/>
    </clipPath>
  </defs>
  <path class="cls-1" d="m142.32,352.62c15.06,11.29,29.29,8.66,39.83,0,58.38,57.53,138.04,47.66,185.87-7.15,143.31,39.98,152.17-170.3,14.3-132.77-29.11-90.89-163.4-105.7-202.72-28.6-36.26-34.72-90.38.51-84.77,43.4-82.72,22.49-62.3,145.13,47.49,125.11Z"/>
  <g class="cls-3">
    <path class="cls-2" d="m31,300.53l-5.62-37.65c76.09-113.49,141.41-71.61,160.85-45.08,43.91-60.77,156.26-39.83,180.26,14.81,61.28-27.06,117.45,5.62,116.94,61.28,0,0,5.11,72,5.11,73.53s-87.32,50.04-96,53.11-117.96,7.66-170.55,2.04-143.49-18.89-148.09-22.98-42.89-99.06-42.89-99.06Z"/>
  </g>
</svg>